<svg width="1024" height="500" viewBox="0 0 1024 500" xmlns="http://www.w3.org/2000/svg">
  <defs>
    <linearGradient id="bg" x1="0" y1="0" x2="1024" y2="500" gradientUnits="userSpaceOnUse">
      <stop offset="0" stop-color="#2C2C22"/>
      <stop offset="1" stop-color="#1A1A10"/>
    </linearGradient>
  </defs>
  <rect x="0" y="0" width="1024" height="500" fill="url(#bg)"/>

  <!-- Orbit mark, left side -->
  <g transform="translate(120 130) scale(10)" fill="none" stroke="#FFFFFF" stroke-width="1.5" stroke-linecap="round" stroke-linejoin="round">
    <path d="M20.341 6.484A10 10 0 0 1 10.266 21.85"/>
    <path d="M3.659 17.516A10 10 0 0 1 13.74 2.152"/>
    <path d="M9,12 a3,3 0 1,0 6,0 a3,3 0 1,0 -6,0"/>
    <path d="M17,5 a2,2 0 1,0 4,0 a2,2 0 1,0 -4,0"/>
    <path d="M3,19 a2,2 0 1,0 4,0 a2,2 0 1,0 -4,0"/>
  </g>

  <!-- Wordmark + tagline, right side -->
  <text x="450" y="260" font-family="Arial, Helvetica, sans-serif" font-size="88" font-weight="700" fill="#FFFFFF">BookOrbit</text>
  <text x="452" y="310" font-family="Arial, Helvetica, sans-serif" font-size="30" fill="#C9C9B8">Your self-hosted library, on the go</text>
</svg>
