<svg width="108" height="108" viewBox="0 0 108 108" xmlns="http://www.w3.org/2000/svg">
  <defs>
    <linearGradient id="bg" x1="0" y1="0" x2="108" y2="108" gradientUnits="userSpaceOnUse">
      <stop offset="0" stop-color="#2C2C22"/>
      <stop offset="1" stop-color="#1A1A10"/>
    </linearGradient>
  </defs>
  <rect x="0" y="0" width="108" height="108" fill="url(#bg)"/>
  <g transform="translate(20.4 20.4) scale(2.8)" fill="none" stroke="#FFFFFF" stroke-width="1.5" stroke-linecap="round" stroke-linejoin="round">
    <path d="M20.341 6.484A10 10 0 0 1 10.266 21.85"/>
    <path d="M3.659 17.516A10 10 0 0 1 13.74 2.152"/>
    <path d="M9,12 a3,3 0 1,0 6,0 a3,3 0 1,0 -6,0"/>
    <path d="M17,5 a2,2 0 1,0 4,0 a2,2 0 1,0 -4,0"/>
    <path d="M3,19 a2,2 0 1,0 4,0 a2,2 0 1,0 -4,0"/>
  </g>
</svg>
